<?xml version="1.0" standalone="no"?>
<!DOCTYPE svg PUBLIC "-//W3C//DTD SVG 20010904//EN"
 "http://www.w3.org/TR/2001/REC-SVG-20010904/DTD/svg10.dtd">
<svg version="1.0" xmlns="http://www.w3.org/2000/svg"
 width="300.000000pt" height="300.000000pt" viewBox="0 0 300.000000 300.000000"
 preserveAspectRatio="xMidYMid meet">
<metadata>
Created by potrace 1.10, written by Peter Selinger 2001-2011
</metadata>
<g transform="translate(0.000000,300.000000) scale(0.100000,-0.100000)"
fill="#000000" stroke="none">
<path d="M2275 2993 c-121 -5 -115 0 -130 -115 -5 -40 -11 -49 -37 -62 -29
-15 -32 -15 -87 19 -31 19 -66 35 -77 35 -24 0 -144 -129 -144 -154 0 -8 20
-39 43 -69 37 -45 43 -57 35 -77 -12 -33 -10 -32 -54 -11 -112 53 -184 80
-199 75 -9 -4 -20 -16 -25 -28 -29 -71 -170 -389 -175 -394 -3 -3 -3 142 1
322 3 181 3 343 -1 362 -4 25 -12 35 -31 40 -46 12 -54 -8 -54 -127 l0 -109
-32 0 c-60 0 -212 -37 -291 -70 -149 -62 -292 -172 -387 -298 -53 -72 -62
-105 -31 -122 31 -16 37 -13 90 54 155 198 353 315 584 344 l67 9 0 -939 0
-938 -153 0 c-192 0 -187 -4 -187 133 0 110 4 103 -99 169 -276 179 -427 534
-365 863 8 44 17 94 21 112 5 28 2 34 -21 44 -40 19 -60 -7 -82 -104 -26 -118
-24 -303 5 -422 26 -108 101 -267 164 -351 60 -79 160 -173 231 -215 l55 -34
1 -84 c0 -97 22 -148 75 -177 l33 -18 4 -140 c3 -128 5 -145 28 -186 29 -52
95 -105 148 -120 20 -5 61 -10 90 -10 l52 0 0 -90 c0 -79 2 -91 20 -100 23
-12 60 2 61 23 0 7 0 251 0 543 l0 531 227 -99 c125 -55 228 -101 229 -102 1
0 -1 -14 -4 -29 -3 -16 -15 -33 -28 -39 -18 -8 -30 -5 -65 21 -24 17 -53 31
-64 31 -28 0 -126 -99 -126 -126 0 -12 14 -40 31 -64 26 -36 29 -46 20 -66 -8
-18 -21 -25 -61 -30 -72 -10 -80 -21 -80 -114 0 -92 9 -103 92 -114 62 -9 71
-38 28 -97 -16 -23 -30 -49 -30 -58 0 -20 109 -131 129 -131 8 0 35 13 60 30
66 42 86 34 100 -41 8 -40 18 -62 32 -69 30 -16 39 -3 22 31 -18 37 -12 46 19
25 31 -22 57 -20 86 6 l25 23 -5 -30 c-3 -16 -9 -38 -13 -47 -5 -13 -3 -18 8
-18 27 0 45 28 52 80 6 42 12 53 31 60 20 8 32 4 66 -20 59 -43 76 -39 141 29
63 66 63 71 15 133 -23 30 -27 41 -19 61 8 20 19 26 58 32 81 12 83 14 83 109
0 55 -4 87 -12 94 -7 6 -37 15 -66 20 -51 9 -52 9 -36 -9 9 -11 22 -19 29 -19
16 0 50 -38 42 -47 -4 -3 -17 3 -30 15 -13 12 -32 22 -43 22 -32 0 -63 28 -75
69 -10 34 -9 43 8 68 36 51 36 62 -1 99 -23 23 -40 32 -53 28 -17 -5 -17 -5
-1 6 21 13 58 -8 87 -49 14 -20 16 -32 9 -51 -8 -22 -5 -29 27 -57 36 -31 36
-31 13 -39 -48 -15 16 -23 200 -23 164 -1 184 1 200 17 9 10 56 60 105 110
l87 91 0 399 c0 296 -3 401 -12 410 -9 9 -84 12 -276 12 -207 0 -263 3 -259
12 3 7 24 54 46 104 l41 91 -25 61 c-14 34 -25 63 -25 65 0 2 17 9 38 16 37
12 41 11 96 -24 36 -23 64 -34 75 -30 19 6 141 140 141 155 0 4 -20 34 -45 66
-29 37 -43 64 -39 74 3 8 8 23 11 32 3 11 26 22 71 32 92 21 95 25 87 135 -9
103 -19 121 -69 121 -65 0 -96 12 -112 42 -14 28 -13 31 21 88 20 33 35 68 33
78 -4 21 -132 142 -151 142 -7 0 -39 -20 -70 -44 -53 -41 -59 -43 -91 -34 -31
10 -35 15 -46 72 -11 55 -39 100 -59 94 -3 -1 -37 -3 -76 -5z m75 -32 c5 -11
10 -28 10 -37 0 -15 -3 -15 -23 4 -13 12 -30 22 -38 22 -10 1 -9 5 5 15 26 20
33 19 46 -4z m-112 -13 c-2 -6 -14 -18 -26 -26 -21 -14 -22 -13 -15 4 10 28
50 50 41 22z m93 -98 c6 -33 17 -64 23 -69 15 -12 126 -51 146 -51 8 0 35 16
59 35 52 41 60 42 90 11 l22 -24 -36 -57 -37 -58 20 -41 c12 -22 25 -53 31
-69 12 -30 45 -47 96 -47 54 0 65 -8 65 -50 l0 -37 -59 -13 c-32 -7 -63 -15
-69 -19 -5 -3 -19 -31 -30 -61 -10 -30 -22 -62 -26 -71 -5 -10 7 -34 34 -70
22 -29 40 -56 40 -59 0 -3 -12 -18 -25 -33 l-25 -28 -52 36 c-61 40 -72 42
-113 15 -45 -30 -59 -25 -78 26 -17 47 -16 64 7 64 22 0 96 71 119 114 29 55
30 164 2 220 -25 52 -78 104 -129 127 -85 39 -210 17 -279 -49 -32 -30 -67
-92 -67 -117 0 -9 -3 -15 -8 -13 -4 2 -28 11 -55 22 -51 20 -54 27 -32 66 22
39 18 61 -25 115 l-40 50 29 28 28 28 58 -35 c37 -22 63 -32 74 -27 137 61
141 65 141 138 0 53 8 63 51 63 l38 0 12 -60z m-951 -197 l0 -48 -27 27 -27
27 25 20 c13 11 25 20 27 21 1 0 2 -21 2 -47z m285 -72 c5 -10 -35 -44 -43
-37 -6 7 18 46 28 46 5 0 11 -4 15 -9z m725 -33 c49 -34 72 -71 77 -125 6 -61
-23 -125 -70 -153 -41 -26 -44 -25 -52 8 -12 51 -34 69 -123 107 -89 38 -90
39 -82 67 13 42 46 83 82 101 49 25 128 22 168 -5z m-470 -32 c0 -14 5 -28 10
-31 26 -16 6 -24 -27 -10 -49 21 -50 21 -22 44 32 27 39 26 39 -3z m32 -107
l276 -122 -25 -56 c-105 -235 -107 -241 -87 -260 10 -10 79 -44 152 -76 72
-32 132 -61 132 -64 0 -3 -17 -45 -37 -93 l-38 -88 -85 0 -86 0 -60 -62 c-33
-35 -81 -86 -107 -115 l-47 -52 0 -222 c0 -206 -1 -221 -17 -216 -10 3 -126
53 -258 111 l-240 107 -3 387 -2 387 121 278 c67 152 124 277 128 277 3 0 131
-55 283 -121z m148 33 c0 -10 7 -28 16 -41 16 -23 16 -23 -7 -16 -13 4 -34 14
-47 22 l-23 14 23 19 c29 24 38 25 38 2z m171 -124 c8 -7 27 -32 42 -55 17
-28 35 -43 51 -45 l25 -3 -21 -33 -21 -33 -15 23 c-28 42 -43 50 -68 33 -33
-22 -34 -20 -18 29 12 33 13 50 5 65 -18 33 -9 42 20 19z m-816 -108 c14 13
25 18 25 12 0 -12 -86 -212 -95 -221 -3 -2 -5 49 -5 114 l0 118 25 -23 25 -23
25 23z m879 -142 c25 -64 46 -118 46 -121 0 -4 -153 59 -169 70 -4 2 13 47 49
126 12 27 23 47 25 45 1 -2 23 -55 49 -120z m92 -28 c31 -13 31 -14 15 -41
-14 -25 -14 -31 3 -78 10 -28 15 -62 12 -75 -5 -22 -7 -22 -49 18 l-43 41 23
22 c27 26 28 36 8 93 -8 23 -11 40 -7 38 4 -3 21 -11 38 -18z m-240 -58 c-10
-10 -39 25 -31 38 5 8 12 5 22 -10 8 -12 12 -24 9 -28z m229 -372 c-7 -11 -45
-13 -70 -4 -14 6 -12 11 11 35 l27 28 19 -24 c11 -14 16 -29 13 -35z m513 -70
l3 -64 -25 23 c-22 21 -29 23 -51 13 -29 -13 -29 -12 -13 22 9 21 8 29 -5 44
-26 29 -21 33 36 30 l52 -3 3 -65z m-147 -25 l-50 -56 -321 -2 c-176 -1 -320
-2 -320 -2 0 1 22 24 48 53 l48 52 309 3 c171 1 316 3 324 5 7 1 -10 -23 -38
-53z m-692 -89 c9 -11 5 -15 -23 -20 -19 -4 -39 -13 -46 -21 -14 -17 -40 -20
-40 -4 0 19 22 54 54 85 l31 31 6 -28 c4 -16 12 -35 18 -43z m754 -602 c-26
-29 -49 -54 -53 -54 -3 0 -4 33 -2 74 5 83 -7 116 -41 116 -41 0 -47 -17 -47
-142 l0 -117 -170 -3 c-94 -2 -170 -1 -170 2 0 3 7 14 15 24 8 11 15 30 15 41
0 27 -101 125 -128 125 -10 0 -38 -14 -62 -31 -55 -40 -86 -30 -95 28 -8 55
-27 88 -53 91 -22 3 -22 5 -22 198 l0 194 335 0 335 0 0 -118 c0 -124 6 -142
45 -142 40 0 45 18 45 153 l0 128 48 54 47 54 3 -310 2 -310 -47 -55z m-88
571 c-16 -36 -17 -37 -36 -19 -10 9 -19 21 -19 26 0 7 62 38 68 33 1 -1 -5
-19 -13 -40z m-1327 -262 c-6 -8 -20 -19 -30 -24 -16 -9 -18 -5 -18 43 l0 52
30 -29 c23 -22 27 -31 18 -42z m629 -230 c-3 -3 -16 2 -29 11 -28 20 -62 21
-78 1 -18 -21 -32 -18 -53 10 l-18 25 34 0 c22 0 41 8 53 21 l19 21 38 -42
c22 -23 37 -44 34 -47z m-33 -63 c7 -54 8 -55 86 -87 l55 -23 44 31 c43 30 44
30 63 11 19 -19 19 -20 -11 -63 l-31 -44 23 -55 c32 -78 33 -79 87 -86 47 -6
50 -9 50 -35 0 -25 -4 -28 -43 -34 -57 -9 -60 -11 -86 -69 -27 -62 -27 -82 4
-122 29 -38 30 -47 10 -64 -12 -10 -24 -6 -64 19 l-50 32 -40 -20 c-22 -12
-47 -21 -55 -21 -19 0 -32 -24 -41 -77 -6 -38 -10 -43 -34 -43 -25 0 -28 4
-37 52 -5 28 -16 55 -24 59 -8 4 -37 17 -63 30 l-49 22 -45 -32 c-45 -32 -46
-32 -65 -13 -19 19 -19 20 13 65 l32 45 -22 49 c-13 26 -26 55 -30 63 -4 8
-31 19 -59 24 -48 9 -52 12 -52 37 0 25 4 28 50 34 55 8 56 8 87 85 l22 54
-30 48 c-26 39 -29 51 -19 63 17 21 23 19 73 -16 l44 -30 49 22 c27 12 56 25
64 29 8 4 19 30 24 59 8 47 11 51 36 51 25 0 28 -4 34 -50z m-278 -12 c4 -7 3
-8 -4 -4 -17 10 -70 -21 -78 -46 -4 -13 -7 -32 -5 -43 1 -17 0 -17 -8 -5 -17
25 -13 42 21 77 33 34 61 42 74 21z m1067 -82 c17 5 15 -1 -12 -35 -37 -47
-66 -65 -88 -57 -12 5 -11 10 6 32 12 15 21 41 21 61 l0 34 27 -20 c17 -14 33
-19 46 -15z m-1435 -70 l-3 -24 -24 19 -24 20 24 25 c23 25 24 25 27 5 2 -11
2 -32 0 -45z m-268 14 c0 -4 -9 -15 -20 -25 -19 -17 -21 -17 -40 0 -30 27 -24
36 20 33 22 -1 40 -5 40 -8z m230 -220 l0 -180 -57 0 c-71 0 -128 30 -154 80
-16 28 -19 57 -19 157 l0 123 115 0 115 0 0 -180z m40 -227 l0 -46 -25 23 -25
24 22 23 c12 13 23 23 25 23 2 0 3 -21 3 -47z m915 -83 c-19 -21 -50 -27 -59
-11 -3 5 6 9 20 9 14 0 31 5 37 11 19 19 21 12 2 -9z"/>
<path d="M1901 668 c-120 -59 -146 -221 -50 -316 83 -83 218 -80 291 6 138
165 -48 406 -241 310z m148 -82 c31 -17 51 -54 51 -96 0 -67 -45 -110 -116
-110 -51 0 -104 53 -104 105 0 43 24 89 54 104 31 14 83 13 115 -3z"/>
<path d="M423 2718 c-26 -34 -23 -41 68 -133 91 -94 113 -107 137 -83 26 26
11 54 -75 140 -86 86 -111 101 -130 76z"/>
<path d="M37 1783 c-15 -14 -7 -63 12 -73 21 -11 219 -14 245 -4 26 10 38 41
26 64 -10 18 -21 20 -144 20 -73 0 -136 -3 -139 -7z"/>
<path d="M507 922 c-94 -95 -107 -123 -61 -144 24 -11 30 -7 121 85 92 91 96
97 85 121 -21 46 -50 34 -145 -62z"/>
</g>
</svg>
