<?xml version="1.0" standalone="no"?>
<!DOCTYPE svg PUBLIC "-//W3C//DTD SVG 20010904//EN"
 "http://www.w3.org/TR/2001/REC-SVG-20010904/DTD/svg10.dtd">
<svg version="1.0" xmlns="http://www.w3.org/2000/svg"
 width="300.000000pt" height="300.000000pt" viewBox="0 0 300.000000 300.000000"
 preserveAspectRatio="xMidYMid meet">
<metadata>
Created by potrace 1.10, written by Peter Selinger 2001-2011
</metadata>
<g transform="translate(0.000000,300.000000) scale(0.100000,-0.100000)"
fill="#000000" stroke="none">
<path d="M1262 2989 c-45 -9 -80 -44 -93 -91 -5 -22 -9 -89 -8 -151 l1 -111
-63 -22 c-35 -11 -87 -33 -115 -47 l-51 -26 -84 85 c-95 97 -122 114 -176 114
-46 0 -69 -14 -146 -89 -62 -61 -75 -101 -37 -121 26 -14 42 -5 115 69 33 34
66 61 74 61 8 0 65 -50 127 -111 l113 -111 93 45 c51 25 120 53 153 63 33 10
66 22 73 27 9 7 12 51 12 161 0 105 4 156 12 164 17 17 459 17 476 0 8 -8 12
-59 12 -164 0 -110 3 -154 13 -161 6 -5 39 -17 72 -27 33 -10 102 -38 153 -64
l93 -45 113 111 c62 62 119 112 127 112 18 0 339 -321 339 -339 0 -8 -50 -65
-112 -127 l-111 -113 45 -93 c26 -51 54 -120 64 -153 10 -33 22 -66 27 -72 7
-10 51 -13 161 -13 105 0 156 -4 164 -12 17 -17 17 -459 0 -476 -8 -8 -59 -12
-164 -12 -110 0 -154 -3 -161 -12 -5 -7 -17 -40 -27 -73 -10 -33 -38 -102 -64
-153 l-45 -93 111 -113 c62 -62 112 -119 112 -127 0 -18 -321 -339 -339 -339
-8 0 -65 50 -127 112 l-113 111 -93 -45 c-51 -26 -120 -54 -153 -64 -33 -10
-66 -22 -72 -27 -10 -7 -13 -51 -13 -161 0 -105 -4 -156 -12 -164 -17 -17
-459 -17 -476 0 -8 8 -12 59 -12 164 0 110 -3 154 -12 161 -7 5 -40 17 -73 27
-33 10 -102 38 -153 64 l-93 45 -113 -111 c-62 -62 -119 -112 -127 -112 -18 0
-339 321 -339 339 0 8 50 65 112 127 l111 113 -45 93 c-26 51 -54 120 -64 153
-10 33 -22 66 -27 72 -7 10 -51 13 -161 13 -105 0 -156 4 -164 12 -17 17 -17
459 0 476 8 8 59 12 164 12 110 0 154 3 161 13 5 6 17 39 27 72 10 33 38 102
63 153 l45 93 -111 113 c-61 62 -111 119 -111 126 0 7 16 30 35 51 19 22 35
45 35 53 0 17 -27 46 -41 46 -44 0 -109 -86 -109 -142 0 -55 17 -82 114 -177
l85 -84 -26 -51 c-14 -28 -36 -80 -47 -115 l-22 -63 -111 1 c-62 1 -129 -3
-151 -8 -47 -13 -81 -48 -92 -95 -7 -33 -6 -35 11 -25 10 5 19 14 19 19 0 6 3
10 8 10 4 0 6 -106 4 -235 l-3 -235 -23 16 -24 15 8 -36 c11 -48 44 -83 92
-96 22 -5 89 -9 151 -8 l111 1 22 -63 c11 -35 33 -87 47 -115 l26 -51 -85 -84
c-97 -95 -114 -122 -114 -176 0 -51 11 -66 164 -222 162 -164 196 -191 248
-191 55 0 82 17 177 114 l84 85 51 -26 c28 -14 80 -36 115 -47 l63 -22 -1
-111 c-1 -62 3 -129 8 -151 13 -48 48 -81 96 -92 l36 -8 -16 24 -15 24 231 0
c224 0 232 -1 216 -18 -10 -10 -17 -21 -17 -24 0 -13 74 12 96 33 35 32 45 85
43 212 l-1 111 63 22 c35 11 87 33 115 47 l51 26 84 -85 c95 -97 122 -114 177
-114 52 0 86 27 248 191 153 156 164 171 164 222 0 54 -17 81 -114 176 l-85
84 26 51 c14 28 36 80 47 115 l22 63 111 -1 c127 -2 180 8 212 43 21 22 46 96
33 96 -3 0 -14 -7 -24 -17 -17 -16 -18 -8 -18 217 0 225 1 233 18 217 10 -10
21 -17 24 -17 13 0 -12 74 -33 96 -32 35 -85 45 -212 43 l-111 -1 -22 63 c-11
35 -33 87 -47 115 l-26 51 85 84 c97 95 114 122 114 177 0 52 -27 86 -191 248
-156 153 -171 164 -222 164 -54 0 -81 -17 -176 -114 l-84 -85 -41 21 c-23 12
-74 33 -115 48 l-73 27 1 111 c1 61 -3 128 -8 150 -13 47 -48 81 -95 92 -34 7
-49 -1 -26 -15 33 -20 -9 -25 -217 -25 -226 0 -226 0 -208 20 23 25 19 29 -23
19z"/>
<path d="M1220 2349 c-25 -11 -56 -31 -70 -44 -18 -16 -49 -28 -106 -38 -127
-24 -220 -77 -281 -159 -47 -64 -73 -145 -83 -253 -5 -65 -16 -108 -36 -155
-26 -59 -29 -76 -29 -175 0 -99 3 -116 27 -168 33 -70 85 -135 137 -171 37
-26 38 -28 44 -105 16 -206 135 -330 332 -349 42 -3 64 -11 73 -23 22 -31 98
-69 148 -75 38 -4 58 -1 88 15 37 19 41 20 58 4 10 -9 40 -18 68 -21 40 -4 60
1 105 22 30 15 63 37 72 50 14 18 32 24 78 28 198 19 316 143 332 349 6 77 7
79 44 105 52 36 104 101 137 171 24 52 27 69 27 168 0 99 -3 116 -29 175 -20
47 -31 90 -36 155 -10 107 -30 172 -77 242 -58 88 -154 145 -286 170 -64 12
-89 22 -119 47 -69 60 -159 72 -244 32 -28 -13 -60 -36 -72 -51 l-22 -28 -22
28 c-30 38 -113 75 -168 75 -25 0 -65 -10 -90 -21z m162 -86 c16 -10 39 -34
51 -53 l22 -35 3 -717 3 -717 -22 -12 c-34 -17 -97 -5 -130 27 -17 16 -37 54
-50 93 -27 83 -44 111 -69 111 -10 0 -26 -10 -34 -21 -13 -20 -13 -27 4 -72
11 -28 18 -52 17 -54 -2 -1 -27 4 -56 12 -124 32 -195 112 -207 233 l-7 61 34
-9 c45 -13 114 -11 164 4 36 10 44 9 81 -11 59 -33 129 -41 154 -18 11 10 20
24 20 31 0 23 -31 44 -64 44 -48 0 -116 40 -138 80 -15 28 -18 49 -15 103 5
72 -6 97 -42 97 -29 0 -42 -25 -48 -87 -5 -52 2 -96 22 -145 6 -16 0 -18 -54
-18 -84 0 -157 30 -215 87 -54 53 -100 138 -110 201 -9 58 9 152 43 226 30 67
111 151 155 162 48 12 56 62 15 85 -20 10 -55 -3 -113 -44 l-29 -21 6 32 c30
150 152 252 321 269 51 4 67 11 96 38 19 18 44 37 55 43 31 17 103 14 137 -5z
m371 6 c12 -6 38 -26 57 -44 29 -27 45 -34 96 -38 169 -17 291 -119 321 -269
l6 -32 -29 21 c-58 41 -93 54 -113 44 -41 -23 -33 -73 15 -85 44 -11 125 -95
155 -162 34 -74 52 -168 43 -226 -10 -61 -55 -147 -104 -195 -59 -59 -118 -85
-208 -91 -71 -5 -75 -4 -68 14 21 51 28 94 23 147 -7 82 -36 109 -77 72 -14
-13 -16 -29 -13 -83 3 -53 0 -74 -15 -102 -22 -40 -90 -80 -138 -80 -33 0 -64
-21 -64 -44 0 -7 9 -21 20 -31 25 -23 95 -15 154 18 37 20 45 21 81 11 50 -15
119 -17 164 -4 l34 9 -7 -61 c-12 -121 -83 -201 -207 -233 -29 -8 -54 -13 -56
-12 -1 2 6 26 17 54 17 45 17 52 4 72 -20 27 -50 27 -68 -1 -7 -13 -24 -54
-36 -92 -13 -39 -34 -80 -48 -93 -29 -27 -85 -39 -121 -27 l-26 9 0 720 c0
715 0 720 21 753 12 19 34 42 50 53 33 21 103 25 137 8z m-216 -29 c-2 -3 -9
-20 -16 -37 -7 -18 -16 -33 -20 -33 -6 0 -41 63 -41 73 0 1 18 2 40 2 22 0 39
-2 37 -5z m-756 -370 c27 0 24 -9 -21 -58 l-40 -44 0 55 c0 31 3 63 7 73 6 16
8 16 21 -4 8 -12 23 -22 33 -22z m1497 -41 l-3 -50 -39 40 -39 40 27 10 c14 6
29 18 33 27 11 30 24 -11 21 -67z m-1118 -660 c0 -4 -16 -9 -35 -11 -39 -4
-40 -3 -23 34 l13 27 22 -21 c13 -12 23 -25 23 -29z m750 -8 c0 -4 -16 -5 -35
-3 -41 5 -43 10 -14 41 l21 22 14 -26 c8 -15 14 -30 14 -34z m-1017 12 c23 -7
22 -26 -3 -48 -19 -17 -20 -17 -26 1 -3 11 -10 30 -15 43 -8 20 -7 22 8 16 10
-4 26 -10 36 -12z m1253 -18 c-11 -37 -24 -43 -44 -23 -19 19 -14 33 16 45 40
16 40 16 28 -22z m-902 -378 l15 -38 -22 16 c-12 8 -29 15 -39 15 -22 0 -22 4
-2 36 19 28 26 24 48 -29z m576 2 c0 -5 -8 -9 -18 -9 -10 0 -27 -7 -39 -15
l-22 -16 15 38 c9 21 19 42 22 47 5 10 42 -29 42 -45z m-300 -59 c10 -18 8
-20 -20 -20 -28 0 -30 2 -20 20 6 11 15 20 20 20 5 0 14 -9 20 -20z"/>
<path d="M1063 1754 c-85 -31 -162 -130 -178 -231 -5 -35 -3 -45 15 -63 19
-19 24 -20 43 -7 14 9 24 30 29 55 12 69 55 130 115 161 28 14 95 14 144 0 30
-10 42 -9 54 1 25 21 15 63 -19 79 -44 21 -153 24 -203 5z"/>
<path d="M1760 1758 c-46 -13 -60 -25 -60 -53 0 -37 24 -49 73 -37 23 6 54 13
69 17 35 7 53 38 38 65 -12 22 -59 26 -120 8z"/>
<path d="M1980 1661 c-8 -15 -3 -32 20 -76 17 -31 30 -69 30 -84 0 -42 16 -56
57 -52 43 4 35 110 -15 188 -21 33 -33 43 -54 43 -17 0 -31 -7 -38 -19z"/>
</g>
</svg>
