<?xml version="1.0" standalone="no"?>
<!DOCTYPE svg PUBLIC "-//W3C//DTD SVG 20010904//EN"
 "http://www.w3.org/TR/2001/REC-SVG-20010904/DTD/svg10.dtd">
<svg version="1.0" xmlns="http://www.w3.org/2000/svg"
 width="300.000000pt" height="300.000000pt" viewBox="0 0 300.000000 300.000000"
 preserveAspectRatio="xMidYMid meet">
<metadata>
Created by potrace 1.10, written by Peter Selinger 2001-2011
</metadata>
<g transform="translate(0.000000,300.000000) scale(0.100000,-0.100000)"
fill="#000000" stroke="none">
<path d="M2515 2975 c-44 -7 -116 -22 -160 -33 l-80 -19 3 -34 c6 -55 49 -168
93 -242 108 -181 315 -330 506 -365 l51 -9 20 81 c26 103 44 255 40 326 l-3
55 -13 -44 c-8 -25 -22 -99 -33 -165 -22 -145 -35 -192 -53 -199 -24 -10 -169
48 -241 95 -128 84 -231 206 -286 338 -36 87 -42 116 -26 128 15 12 119 36
250 56 53 9 112 22 130 30 31 14 30 14 -43 14 -41 0 -111 -6 -155 -13z"/>
<path d="M2845 2980 c11 -5 37 -16 57 -24 37 -14 41 -20 76 -106 9 -21 11 -17
11 33 1 49 -3 62 -24 82 -20 21 -33 25 -82 24 -43 0 -53 -3 -38 -9z"/>
<path d="M1965 2793 c-445 -223 -867 -624 -1199 -1138 -32 -49 -67 -103 -78
-119 l-20 -28 99 -100 100 -100 49 17 c75 27 191 31 255 10 71 -24 140 -93
164 -165 21 -63 16 -177 -11 -254 l-17 -48 99 -99 c54 -54 102 -99 106 -99 12
0 192 116 308 199 176 125 298 228 458 385 173 170 267 281 378 447 78 118
218 385 208 400 -3 5 -15 9 -28 9 -57 0 -229 73 -332 141 -81 53 -234 216
-287 306 -48 81 -107 228 -107 270 0 12 -3 24 -8 27 -4 2 -66 -25 -137 -61z
m142 -98 c115 -287 342 -506 623 -601 39 -13 66 -28 68 -37 4 -21 -93 -209
-166 -322 -212 -327 -586 -681 -998 -944 l-116 -74 -80 80 -80 80 17 78 c66
294 -135 491 -427 420 l-71 -17 -75 75 c-57 57 -73 79 -68 94 4 11 39 69 79
129 263 396 586 734 909 950 109 74 316 185 336 181 7 -1 29 -42 49 -92z"/>
<path d="M1816 2399 c-115 -27 -256 -140 -311 -250 -128 -251 -4 -569 261
-668 259 -98 557 61 629 334 63 245 -88 507 -334 579 -59 17 -182 20 -245 5z
m274 -57 c293 -115 374 -493 153 -716 -175 -176 -443 -177 -621 -3 -236 232
-135 628 188 732 65 21 209 14 280 -13z"/>
<path d="M1839 2176 c-96 -34 -169 -140 -169 -245 0 -186 199 -315 365 -237
98 45 146 116 153 221 3 57 0 81 -15 116 -45 102 -132 159 -237 159 -34 -1
-77 -7 -97 -14z m211 -60 c168 -111 111 -372 -88 -402 -168 -25 -301 151 -231
306 27 60 45 79 104 107 67 32 157 28 215 -11z"/>
<path d="M608 2025 c-78 -20 -191 -78 -263 -135 -90 -72 -335 -324 -336 -346
-6 -97 38 -128 141 -99 30 9 109 19 176 22 l121 6 53 91 c67 116 198 313 261
393 30 39 45 65 38 69 -22 13 -136 13 -191 -1z m112 -38 c0 -7 -30 -56 -66
-108 -36 -52 -99 -150 -141 -219 -42 -69 -83 -131 -92 -137 -8 -8 -43 -13 -82
-13 -37 0 -103 -7 -146 -15 -103 -20 -126 -19 -148 5 -10 11 -16 22 -14 24
109 115 307 309 343 338 57 45 138 88 211 111 44 14 67 19 123 26 6 0 12 -5
12 -12z"/>
<path d="M502 1201 c-40 -76 -72 -150 -72 -164 0 -14 10 -38 23 -52 l22 -26
119 126 119 127 -64 64 c-35 35 -66 64 -69 64 -3 0 -38 -62 -78 -139z m126 38
l24 -29 -83 -90 c-55 -60 -85 -87 -90 -79 -9 16 97 229 114 228 6 0 22 -13 35
-30z"/>
<path d="M980 1161 c-90 -28 -181 -104 -335 -281 -143 -165 -273 -355 -290
-423 -14 -55 29 -107 87 -107 67 0 340 198 549 397 135 130 179 206 179 310 0
55 -4 67 -25 88 -20 21 -33 25 -82 24 -32 0 -69 -4 -83 -8z m134 -47 c26 -25
20 -100 -13 -169 -56 -118 -405 -424 -596 -524 -64 -34 -88 -33 -106 1 -13 24
24 102 99 208 89 127 299 370 364 421 83 66 216 100 252 63z"/>
<path d="M1910 714 c-95 -69 -290 -194 -396 -254 l-41 -24 -6 -105 c-3 -58
-11 -141 -18 -183 -11 -68 -11 -79 5 -103 23 -35 60 -48 100 -35 37 12 315
288 365 363 78 115 128 276 114 372 -3 25 -8 45 -12 45 -3 -1 -53 -35 -111
-76z m80 -43 c0 -55 -31 -147 -75 -228 -29 -51 -80 -111 -211 -242 -152 -154
-175 -173 -189 -161 -32 27 -37 49 -25 118 6 37 14 109 18 161 l7 93 112 69
c62 37 166 104 230 148 65 44 121 81 126 81 4 0 7 -18 7 -39z"/>
<path d="M1120 627 c-47 -45 -102 -97 -124 -115 l-38 -33 22 -24 c47 -50 72
-44 268 62 l104 55 -68 69 c-38 38 -71 69 -74 69 -3 0 -43 -37 -90 -83z m129
-11 l32 -33 -43 -25 c-125 -73 -208 -104 -208 -79 0 10 170 171 181 171 3 0
20 -15 38 -34z"/>
</g>
</svg>
